<svg width="32" height="32" viewBox="0 0 32 32" fill="none" xmlns="http://www.w3.org/2000/svg">
<path fill-rule="evenodd" clip-rule="evenodd" d="M15.7648 20.0089L26.3708 30.6149C26.9336 31.1777 27.6969 31.4938 28.4928 31.4938C29.2887 31.4938 30.052 31.1777 30.6148 30.6149C31.1776 30.0521 31.4938 29.2888 31.4938 28.4929C31.4938 27.697 31.1776 26.9337 30.6148 26.3709L20.0048 15.7649L30.6128 5.15887C30.8914 4.8802 31.1123 4.54941 31.263 4.18536C31.4137 3.82132 31.4912 3.43116 31.4911 3.03716C31.491 2.64316 31.4133 2.25304 31.2624 1.88907C31.1116 1.5251 30.8905 1.1944 30.6118 0.915869C30.3332 0.637335 30.0024 0.416416 29.6383 0.265725C29.2743 0.115034 28.8841 0.0375219 28.4901 0.0376147C28.0961 0.0377076 27.706 0.115403 27.342 0.266266C26.9781 0.417128 26.6474 0.638204 26.3688 0.916869L15.7648 11.5229L5.15883 0.916869C4.88223 0.630211 4.5513 0.401511 4.18536 0.244114C3.81943 0.0867167 3.42581 0.00377377 3.02747 0.000125808C2.62914 -0.00352216 2.23407 0.0721972 1.86531 0.222866C1.49655 0.373535 1.16149 0.596136 0.87968 0.87768C0.59787 1.15922 0.374954 1.49407 0.223937 1.86269C0.0729207 2.23131 -0.00317112 2.62631 0.000101234 3.02464C0.00337359 3.42298 0.0859443 3.81668 0.242996 4.18277C0.400048 4.54885 0.628436 4.87999 0.914833 5.15687L11.5248 15.7649L0.916834 26.3729C0.630437 26.6497 0.402049 26.9809 0.244997 27.347C0.0879451 27.7131 0.00537344 28.1068 0.00210109 28.5051C-0.00117127 28.9034 0.0749206 29.2984 0.225937 29.667C0.376953 30.0357 0.59987 30.3705 0.88168 30.6521C1.16349 30.9336 1.49855 31.1562 1.86731 31.3069C2.23607 31.4575 2.63114 31.5333 3.02947 31.5296C3.42781 31.526 3.82143 31.443 4.18736 31.2856C4.5533 31.1282 4.88423 30.8995 5.16083 30.6129L15.7648 20.0089Z" fill="#2C2C2C"/>
</svg>
